{"title":"Burlesque.2010.DvDRip.x264.Feel-Free","uid":6154664,"size":1093792417,"categoryP":"video","categoryS":"movies","magnet":"?xt=urn:btih:4bfeb4083fdd9b14a00776d024920e85711ba941&amp;dn=Burlesque.2010.DvDRip.x264.Feel-Free&amp;tr=udp%3A%2F%2Ftracker.openbittorrent.com%3A80&amp;tr=udp%3A%2F%2Fopen.demonii.com%3A1337&amp;tr=udp%3A%2F%2Ftracker.coppersurfer.tk%3A6969&amp;tr=udp%3A%2F%2Fexodus.desync.com%3A6969","seeders":0,"leechers":0,"uploader":"hiest","files":-1,"time":1297001078,"description":"Language:English\nIMDb:http://akas.imdb.com/title/tt1126591/\nSource:DVD\nSubtitles:Romana\n\n\nFormat : MPEG-4\nFormat profile : Base Media\nCodec ID : isom\nFile size : 1.02 GiB\nDuration : 1h 59mn\nOverall bit rate : 1 224 Kbps\nMovie name : Burlesque.2010.DvDRip.x264.Feel-Free\n\n\nVideo\nFormat settings, CABAC : Yes\nFormat settings, ReFrames : 4 frames\nCodec ID : avc1\nCodec ID/Info : Advanced Video Coding\nDuration : 1h 59mn\nBit rate mode : Variable\nBit rate : 834 Kbps\nNominal bit rate : 786 Kbps\nWidth : 720 pixels\nHeight : 304 pixels\nDisplay aspect ratio : 2.35:1\nFrame rate mode : Constant\nFrame rate : 23.976 fps\nColor space : YUV\nChroma subsampling : 4:2:0\nBit depth : 8 bits\nScan type : Progressive\nBits/(Pixel*Frame) : 0.159\nStream size : 710 MiB (68%)\nWriting library : x264\n\nAudio\nID : 2\nFormat : AAC\nFormat/Info : Advanced Audio Codec\nFormat version : Version 4\nFormat profile : LC\nCodec ID : 40\nDuration : 1h 58mn\nBit rate mode : Variable\nBit rate : 384 Kbps\nChannel(s) : 6 channels\nChannel positions : Front: L C R, Side: L R, LFE\nSampling rate : 48.0 KHz\nStream size : 327 MiB (31%)\n\n\nPlot:\nA small-town girl ventures to Los Angeles and finds her place in a neo-burlesque club run by a former dancer\n\n\n\n\n\n\n\n================================== &lt;a href=&quot;\nhttp://thepiratebay.se/user/hiest&quot; rel=&quot;nofollow&quot; target=&quot;_NEW&quot;&gt;\nhttp://thepiratebay.se/user/hiest&lt;/a&gt;\n==================================\n\n\n\n\n\n\n\nScreenshots:\n &lt;a href=&quot;\nhttp://rapidhdd.com/images/211039vlcsnap-00001.png&quot; rel=&quot;nofollow&quot; target=&quot;_NEW&quot;&gt;\nhttp://rapidhdd.com/images/211039vlcsnap-00001.png&lt;/a&gt;\n &lt;a href=&quot;\nhttp://www.rapidhdd.com/images/428378vlcsnap-00004.png&quot; rel=&quot;nofollow&quot; target=&quot;_NEW&quot;&gt;\nhttp://www.rapidhdd.com/images/428378vlcsnap-00004.png&lt;/a&gt;\n &lt;a href=&quot;\nhttp://www.rapidhdd.com/images/562534vlcsnap-00002.png&quot; rel=&quot;nofollow&quot; target=&quot;_NEW&quot;&gt;\nhttp://www.rapidhdd.com/images/562534vlcsnap-00002.png&lt;/a&gt;\n &lt;a href=&quot;\nhttp://www.rapidhdd.com/images/306039vlcsnap-00006.png&quot; rel=&quot;nofollow&quot; target=&quot;_NEW&quot;&gt;\nhttp://www.rapidhdd.com/images/306039vlcsnap-00006.png&lt;/a&gt;\n &lt;a href=&quot;\nhttp://www.rapidhdd.com/images/916788vlcsnap-00003.png&quot; rel=&quot;nofollow&quot; target=&quot;_NEW&quot;&gt;\nhttp://www.rapidhdd.com/images/916788vlcsnap-00003.png&lt;/a&gt;","torrent":{"xt":"urn:btih:4bfeb4083fdd9b14a00776d024920e85711ba941","amp;dn":"Burlesque.2010.DvDRip.x264.Feel-Free","amp;tr":["udp%3A%2F%2Ftracker.openbittorrent.com%3A80","udp%3A%2F%2Fopen.demonii.com%3A1337","udp%3A%2F%2Ftracker.coppersurfer.tk%3A6969","udp%3A%2F%2Fexodus.desync.com%3A6969"],"infoHash":"4bfeb4083fdd9b14a00776d024920e85711ba941","infoHashBuffer":{"type":"Buffer","data":[75,254,180,8,63,221,155,20,160,7,118,208,36,146,14,133,113,27,169,65]},"announce":[],"urlList":[]}}